<svg id="Layer_1" data-name="Layer 1" xmlns="http://www.w3.org/2000/svg" xmlns:xlink="http://www.w3.org/1999/xlink" width="300" height="300" viewBox="0 0 300 300"><defs><style>.cls-1{fill:url(#radial-gradient);}.cls-2{fill:url(#radial-gradient-6);}</style><radialGradient id="radial-gradient" cx="148.9" cy="-0.12" r="293.14" gradientUnits="userSpaceOnUse"><stop offset="0" stop-color="#dc3e78"/><stop offset="1" stop-color="#1d4dc9"/></radialGradient><radialGradient id="radial-gradient-6" cx="148.9" cy="-0.11" r="293.14" xlink:href="#radial-gradient"/></defs><path class="cls-1" d="M83,93.14V15.76A150.52,150.52,0,0,0,11.16,93.14Z" transform="translate(0)"/><path class="cls-1" d="M222.36,126.36H116.24v47.29h0a142.06,142.06,0,0,0,100.43-41.6Z" transform="translate(0)"/><path class="cls-1" d="M116.24,93.14H224.42a75.22,75.22,0,0,0,53.18-22h0A150.21,150.21,0,0,0,116.24,3.82Z" transform="translate(0)"/><path class="cls-1" d="M83,126.36H1.86a151.22,151.22,0,0,0,0,47.29H83Z" transform="translate(0)"/><path class="cls-1" d="M83,206.86H11.16A150.58,150.58,0,0,0,83,284.25Z" transform="translate(0)"/><path class="cls-2" d="M249,146.73l-18.53,18.53A142,142,0,0,1,130,206.86H116.24v89.33a150.1,150.1,0,0,0,29.13,3.74C229,302.47,299.77,234.12,300,150.42a151.41,151.41,0,0,0-1.86-24.06h0A69.55,69.55,0,0,0,249,146.73Z" transform="translate(0)"/></svg>